 <svg  version="1.0" xmlns="http://www.w3.org/2000/svg"  width="300.000000pt" height="301.000000pt" viewBox="0 0 300.000000 301.000000"  preserveAspectRatio="xMidYMid meet">  <g transform="translate(0.000000,301.000000) scale(0.100000,-0.100000)" fill="#000000" stroke="none"> <path d="M1320 2564 c-146 -74 -393 -404 -527 -706 -93 -207 -164 -454 -197 -679 -20 -135 -20 -230 -1 -325 74 -357 387 -502 733 -339 94 44 210 125 263 182 119 130 119 297 -2 377 -54 36 -108 49 -191 45 -64 -4 -88 -11 -159 -46 -46 -23 -93 -48 -103 -56 -21 -15 -21 -14 32 -95 7 -11 20 -7 61 18 110 68 205 87 274 54 70 -33 85 -102 38 -175 -34 -53 -66 -83 -147 -138 -233 -157 -454 -161 -592 -11 -13 14 -39 57 -58 95 -63 130 -66 296 -8 554 80 358 207 643 404 906 164 220 281 298 345 229 61 -66 59 -267 -6 -549 l-21 -91 -53 -28 c-114 -59 -246 -191 -286 -284 -78 -180 100 -311 232 -172 50 52 148 251 192 391 11 35 191 53 245 25 15 -8 36 -24 47 -36 20 -22 20 -23 0 -34 -36 -20 -127 -110 -167 -164 -56 -75 -78 -128 -78 -191 0 -47 4 -57 34 -87 29 -29 41 -34 80 -34 56 0 89 16 138 67 74 77 148 234 148 314 0 26 3 29 33 29 17 0 55 -13 83 -29 151 -87 184 -277 85 -495 -84 -185 -253 -349 -439 -426 -42 -18 -78 -33 -79 -34 -2 -2 4 -26 13 -55 18 -61 12 -61 142 0 237 110 417 312 503 564 33 98 34 264 1 345 -59 147 -182 240 -320 241 -47 1 -54 4 -67 28 -20 40 -87 97 -131 112 -45 15 -153 18 -202 6 -31 -8 -32 -8 -23 15 25 68 45 232 46 378 0 151 -1 157 -28 213 -38 77 -87 110 -171 115 -51 3 -70 -1 -116 -24z m198 -42 c50 -36 76 -103 80 -209 5 -97 -10 -252 -34 -367 -14 -67 -14 -70 8 -93 19 -21 30 -23 112 -23 112 0 152 -17 219 -89 49 -52 57 -56 140 -65 101 -12 207 -98 248 -204 30 -74 32 -226 5 -317 -40 -133 -145 -298 -253 -395 -93 -83 -290 -196 -309 -177 -11 11 7 26 60 50 286 131 517 470 492 721 -12 115 -82 222 -179 270 -100 50 -145 28 -167 -84 -20 -108 -89 -223 -162 -272 -52 -35 -91 -36 -125 -2 -22 22 -25 32 -21 74 7 69 57 147 161 250 49 49 87 95 87 106 0 24 -41 69 -83 91 -64 33 -223 15 -266 -31 -11 -11 -42 -75 -70 -141 -95 -226 -150 -295 -233 -295 -83 0 -113 82 -65 179 29 61 167 198 241 242 32 19 67 45 78 59 41 56 81 282 82 465 1 125 0 132 -27 177 -62 105 -150 102 -270 -10 -195 -183 -385 -503 -497 -840 -101 -303 -140 -609 -96 -757 41 -136 110 -226 214 -277 63 -31 73 -33 172 -33 83 0 117 5 164 23 149 55 322 187 366 278 40 82 11 163 -76 204 -66 33 -146 25 -246 -22 -42 -20 -79 -34 -82 -30 -15 14 -1 25 72 60 70 34 85 37 162 37 72 0 92 -4 128 -25 90 -51 115 -149 66 -248 -48 -98 -209 -219 -372 -280 -57 -22 -84 -26 -182 -26 -105 -1 -120 1 -173 26 -117 55 -187 135 -234 269 -24 67 -27 87 -26 219 0 116 5 171 26 275 91 443 280 835 542 1122 124 135 237 176 323 115z"/> <path d="M1291 1604 c-66 -62 -121 -146 -121 -185 0 -28 39 -69 67 -69 37 0 90 60 136 153 47 97 54 128 32 150 -9 10 -23 17 -31 17 -7 0 -45 -30 -83 -66z m109 41 c0 -3 -25 -54 -55 -113 -71 -137 -124 -187 -133 -124 -5 35 27 89 100 167 62 66 88 87 88 70z"/> <path d="M1817 1569 c-38 -29 -114 -130 -139 -185 -16 -36 -18 -52 -10 -70 34 -74 109 -34 192 102 36 59 48 120 31 153 -15 26 -38 26 -74 0z m48 -50 c-31 -86 -119 -209 -151 -209 -23 0 -16 43 17 95 30 48 139 168 146 162 2 -2 -4 -24 -12 -48z"/> </g> </svg> 